solid OpenSCAD_Model
  facet normal 0 -0 -1
    outer loop
      vertex 15.4508 47.5528 -50
      vertex 50 0 -50
      vertex -40.4508 -29.3893 -50
    endloop
  endfacet
  facet normal 0 0 -1
    outer loop
      vertex 50 0 -50
      vertex 15.4508 -47.5528 -50
      vertex -40.4508 -29.3893 -50
    endloop
  endfacet
  facet normal 0 0 -1
    outer loop
      vertex 15.4508 47.5528 -50
      vertex -40.4508 -29.3893 -50
      vertex -40.4508 29.3893 -50
    endloop
  endfacet
  facet normal 0 0 1
    outer loop
      vertex 35.967 34.7329 50
      vertex -8.68241 -49.2404 50
      vertex 44.1474 -23.4736 50
    endloop
  endfacet
  facet normal 0 0 1
    outer loop
      vertex -21.9186 44.9397 50
      vertex -49.5134 -6.95866 50
      vertex -8.68241 -49.2404 50
    endloop
  endfacet
  facet normal 0 0 1
    outer loop
      vertex 35.967 34.7329 50
      vertex -21.9186 44.9397 50
      vertex -8.68241 -49.2404 50
    endloop
  endfacet
  facet normal 0.698126 0.507218 0.505322
    outer loop
      vertex 15.4508 47.5528 -50
      vertex 48.8148 -10.822 -37.5
      vertex 50 0 -50
    endloop
  endfacet
  facet normal 0.79136 0.344093 -0.505322
    outer loop
      vertex 15.4508 47.5528 -50
      vertex 25.3769 43.0815 -37.5
      vertex 48.8148 -10.822 -37.5
    endloop
  endfacet
  facet normal -0.26666 0.820696 0.505322
    outer loop
      vertex -40.4508 29.3893 -50
      vertex 25.3769 43.0815 -37.5
      vertex 15.4508 47.5528 -50
    endloop
  endfacet
  facet normal -0.0827083 0.858958 -0.505322
    outer loop
      vertex -40.4508 29.3893 -50
      vertex -33.131 37.4478 -37.5
      vertex 25.3769 43.0815 -37.5
    endloop
  endfacet
  facet normal -0.862931 1.04315e-16 0.505322
    outer loop
      vertex -40.4508 -29.3893 -50
      vertex -33.131 37.4478 -37.5
      vertex -40.4508 29.3893 -50
    endloop
  endfacet
  facet normal -0.842476 0.186772 -0.505322
    outer loop
      vertex -40.4508 -29.3893 -50
      vertex -45.853 -19.9375 -37.5
      vertex -33.131 37.4478 -37.5
    endloop
  endfacet
  facet normal -0.26666 -0.820696 0.505322
    outer loop
      vertex 15.4508 -47.5528 -50
      vertex -45.853 -19.9375 -37.5
      vertex -40.4508 -29.3893 -50
    endloop
  endfacet
  facet normal -0.437971 -0.743526 -0.505322
    outer loop
      vertex 15.4508 -47.5528 -50
      vertex 4.79229 -49.7698 -37.5
      vertex -45.853 -19.9375 -37.5
    endloop
  endfacet
  facet normal 0.698126 -0.507218 0.505322
    outer loop
      vertex 50 0 -50
      vertex 4.79229 -49.7698 -37.5
      vertex 15.4508 -47.5528 -50
    endloop
  endfacet
  facet normal 0.571795 -0.646297 -0.505322
    outer loop
      vertex 50 0 -50
      vertex 48.8148 -10.822 -37.5
      vertex 4.79229 -49.7698 -37.5
    endloop
  endfacet
  facet normal 0.79136 0.344093 0.505322
    outer loop
      vertex 25.3769 43.0815 -37.5
      vertex 45.3154 -21.1309 -25
      vertex 48.8148 -10.822 -37.5
    endloop
  endfacet
  facet normal 0.847076 0.164655 -0.505322
    outer loop
      vertex 25.3769 43.0815 -37.5
      vertex 34.0999 36.5677 -25
      vertex 45.3154 -21.1309 -25
    endloop
  endfacet
  facet normal -0.0827083 0.858958 0.505322
    outer loop
      vertex -33.131 37.4478 -37.5
      vertex 34.0999 36.5677 -25
      vertex 25.3769 43.0815 -37.5
    endloop
  endfacet
  facet normal 0.105165 0.856499 -0.505322
    outer loop
      vertex -33.131 37.4478 -37.5
      vertex -24.2405 43.731 -25
      vertex 34.0999 36.5677 -25
    endloop
  endfacet
  facet normal -0.842476 0.186772 0.505322
    outer loop
      vertex -45.853 -19.9375 -37.5
      vertex -24.2405 43.731 -25
      vertex -33.131 37.4478 -37.5
    endloop
  endfacet
  facet normal -0.782081 0.36469 -0.505322
    outer loop
      vertex -45.853 -19.9375 -37.5
      vertex -49.0814 -9.54045 -25
      vertex -24.2405 43.731 -25
    endloop
  endfacet
  facet normal -0.437971 -0.743526 0.505322
    outer loop
      vertex 4.79229 -49.7698 -37.5
      vertex -49.0814 -9.54045 -25
      vertex -45.853 -19.9375 -37.5
    endloop
  endfacet
  facet normal -0.588518 -0.631108 -0.505322
    outer loop
      vertex 4.79229 -49.7698 -37.5
      vertex -6.09347 -49.6273 -25
      vertex -49.0814 -9.54045 -25
    endloop
  endfacet
  facet normal 0.571795 -0.646297 0.505322
    outer loop
      vertex 48.8148 -10.822 -37.5
      vertex -6.09347 -49.6273 -25
      vertex 4.79229 -49.7698 -37.5
    endloop
  endfacet
  facet normal 0.418357 -0.754736 -0.505322
    outer loop
      vertex 48.8148 -10.822 -37.5
      vertex 45.3154 -21.1309 -25
      vertex -6.09347 -49.6273 -25
    endloop
  endfacet
  facet normal 0.847076 0.164655 0.505322
    outer loop
      vertex 34.0999 36.5677 -25
      vertex 39.6677 -30.4381 -12.5
      vertex 45.3154 -21.1309 -25
    endloop
  endfacet
  facet normal 0.862635 -0.0225889 -0.505322
    outer loop
      vertex 34.0999 36.5677 -25
      vertex 41.2063 28.3203 -12.5
      vertex 39.6677 -30.4381 -12.5
    endloop
  endfacet
  facet normal 0.105165 0.856499 0.505322
    outer loop
      vertex -24.2405 43.731 -25
      vertex 41.2063 28.3203 -12.5
      vertex 34.0999 36.5677 -25
    endloop
  endfacet
  facet normal 0.288052 0.813435 -0.505322
    outer loop
      vertex -24.2405 43.731 -25
      vertex -14.2008 47.941 -12.5
      vertex 41.2063 28.3203 -12.5
    endloop
  endfacet
  facet normal -0.782081 0.36469 0.505322
    outer loop
      vertex -49.0814 -9.54045 -25
      vertex -14.2008 47.941 -12.5
      vertex -24.2405 43.731 -25
    endloop
  endfacet
  facet normal -0.684609 0.525319 -0.505322
    outer loop
      vertex -49.0814 -9.54045 -25
      vertex -49.9829 1.30885 -12.5
      vertex -14.2008 47.941 -12.5
    endloop
  endfacet
  facet normal -0.588518 -0.631108 0.505322
    outer loop
      vertex -6.09347 -49.6273 -25
      vertex -49.9829 1.30885 -12.5
      vertex -49.0814 -9.54045 -25
    endloop
  endfacet
  facet normal -0.711164 -0.488769 -0.505322
    outer loop
      vertex -6.09347 -49.6273 -25
      vertex -16.6903 -47.1321 -12.5
      vertex -49.9829 1.30885 -12.5
    endloop
  endfacet
  facet normal 0.418357 -0.754736 0.505322
    outer loop
      vertex 45.3154 -21.1309 -25
      vertex -16.6903 -47.1321 -12.5
      vertex -6.09347 -49.6273 -25
    endloop
  endfacet
  facet normal 0.245086 -0.827395 -0.505322
    outer loop
      vertex 45.3154 -21.1309 -25
      vertex 39.6677 -30.4381 -12.5
      vertex -16.6903 -47.1321 -12.5
    endloop
  endfacet
  facet normal 0.862635 -0.0225889 0.505322
    outer loop
      vertex 41.2063 28.3203 -12.5
      vertex 32.1394 -38.3022 0
      vertex 39.6677 -30.4381 -12.5
    endloop
  endfacet
  facet normal 0.837298 -0.208762 -0.505322
    outer loop
      vertex 41.2063 28.3203 -12.5
      vertex 46.3592 18.7303 0
      vertex 32.1394 -38.3022 0
    endloop
  endfacet
  facet normal 0.288052 0.813435 0.505322
    outer loop
      vertex -14.2008 47.941 -12.5
      vertex 46.3592 18.7303 0
      vertex 41.2063 28.3203 -12.5
    endloop
  endfacet
  facet normal 0.457284 0.731807 -0.505322
    outer loop
      vertex -14.2008 47.941 -12.5
      vertex -3.48782 49.8782 0
      vertex 46.3592 18.7303 0
    endloop
  endfacet
  facet normal -0.684609 0.525319 0.505322
    outer loop
      vertex -49.9829 1.30885 -12.5
      vertex -3.48782 49.8782 0
      vertex -14.2008 47.941 -12.5
    endloop
  endfacet
  facet normal -0.554681 0.661043 -0.505322
    outer loop
      vertex -49.9829 1.30885 -12.5
      vertex -48.5148 12.0961 0
      vertex -3.48782 49.8782 0
    endloop
  endfacet
  facet normal -0.711164 -0.488769 0.505322
    outer loop
      vertex -16.6903 -47.1321 -12.5
      vertex -48.5148 12.0961 0
      vertex -49.9829 1.30885 -12.5
    endloop
  endfacet
  facet normal -0.800096 -0.32326 -0.505322
    outer loop
      vertex -16.6903 -47.1321 -12.5
      vertex -26.496 -42.4024 0
      vertex -48.5148 12.0961 0
    endloop
  endfacet
  facet normal 0.245086 -0.827395 0.505322
    outer loop
      vertex 39.6677 -30.4381 -12.5
      vertex -26.496 -42.4024 0
      vertex -16.6903 -47.1321 -12.5
    endloop
  endfacet
  facet normal 0.060195 -0.860829 -0.505322
    outer loop
      vertex 39.6677 -30.4381 -12.5
      vertex 32.1394 -38.3022 0
      vertex -26.496 -42.4024 0
    endloop
  endfacet
  facet normal 0.837298 -0.208762 0.505322
    outer loop
      vertex 46.3592 18.7303 0
      vertex 23.0874 -44.3505 12.5
      vertex 32.1394 -38.3022 0
    endloop
  endfacet
  facet normal 0.772267 -0.385038 -0.505322
    outer loop
      vertex 46.3592 18.7303 0
      vertex 49.3143 8.25238 12.5
      vertex 23.0874 -44.3505 12.5
    endloop
  endfacet
  facet normal 0.457284 0.731807 0.505322
    outer loop
      vertex -3.48782 49.8782 0
      vertex 49.3143 8.25238 12.5
      vertex 46.3592 18.7303 0
    endloop
  endfacet
  facet normal 0.604836 0.615486 -0.505322
    outer loop
      vertex -3.48782 49.8782 0
      vertex 7.39047 49.4508 12.5
      vertex 49.3143 8.25238 12.5
    endloop
  endfacet
  facet normal -0.554681 0.661043 0.505322
    outer loop
      vertex -48.5148 12.0961 0
      vertex 7.39047 49.4508 12.5
      vertex -3.48782 49.8782 0
    endloop
  endfacet
  facet normal -0.398457 0.765429 -0.505322
    outer loop
      vertex -48.5148 12.0961 0
      vertex -44.7467 22.3099 12.5
      vertex 7.39047 49.4508 12.5
    endloop
  endfacet
  facet normal -0.800096 -0.32326 0.505322
    outer loop
      vertex -26.496 -42.4024 0
      vertex -44.7467 22.3099 12.5
      vertex -48.5148 12.0961 0
    endloop
  endfacet
  facet normal -0.851096 -0.142425 -0.505322
    outer loop
      vertex -26.496 -42.4024 0
      vertex -35.0455 -35.6625 12.5
      vertex -44.7467 22.3099 12.5
    endloop
  endfacet
  facet normal 0.060195 -0.860829 0.505322
    outer loop
      vertex 32.1394 -38.3022 0
      vertex -35.0455 -35.6625 12.5
      vertex -26.496 -42.4024 0
    endloop
  endfacet
  facet normal -0.127549 -0.853452 -0.505322
    outer loop
      vertex 32.1394 -38.3022 0
      vertex 23.0874 -44.3505 12.5
      vertex -35.0455 -35.6625 12.5
    endloop
  endfacet
  facet normal 0.772267 -0.385038 0.505322
    outer loop
      vertex 49.3143 8.25238 12.5
      vertex 12.941 -48.2963 25
      vertex 23.0874 -44.3505 12.5
    endloop
  endfacet
  facet normal 0.670623 -0.54306 -0.505322
    outer loop
      vertex 49.3143 8.25238 12.5
      vertex 49.9315 -2.6168 25
      vertex 12.941 -48.2963 25
    endloop
  endfacet
  facet normal 0.604836 0.615486 0.505322
    outer loop
      vertex 7.39047 49.4508 12.5
      vertex 49.9315 -2.6168 25
      vertex 49.3143 8.25238 12.5
    endloop
  endfacet
  facet normal 0.723715 0.469986 -0.505322
    outer loop
      vertex 7.39047 49.4508 12.5
      vertex 17.9184 46.679 25
      vertex 49.9315 -2.6168 25
    endloop
  endfacet
  facet normal -0.398457 0.765429 0.505322
    outer loop
      vertex -44.7467 22.3099 12.5
      vertex 17.9184 46.679 25
      vertex 7.39047 49.4508 12.5
    endloop
  endfacet
  facet normal -0.223343 0.833527 -0.505322
    outer loop
      vertex -44.7467 22.3099 12.5
      vertex -38.8573 31.466 25
      vertex 17.9184 46.679 25
    endloop
  endfacet
  facet normal -0.851096 -0.142425 0.505322
    outer loop
      vertex -35.0455 -35.6625 12.5
      vertex -38.8573 31.466 25
      vertex -44.7467 22.3099 12.5
    endloop
  endfacet
  facet normal -0.861748 0.0451623 -0.505322
    outer loop
      vertex -35.0455 -35.6625 12.5
      vertex -41.9335 -27.232 25
      vertex -38.8573 31.466 25
    endloop
  endfacet
  facet normal -0.127549 -0.853452 0.505322
    outer loop
      vertex 23.0874 -44.3505 12.5
      vertex -41.9335 -27.232 25
      vertex -35.0455 -35.6625 12.5
    endloop
  endfacet
  facet normal -0.309247 -0.805615 -0.505322
    outer loop
      vertex 23.0874 -44.3505 12.5
      vertex 12.941 -48.2963 25
      vertex -41.9335 -27.232 25
    endloop
  endfacet
  facet normal 0.670623 -0.54306 0.505322
    outer loop
      vertex 49.9315 -2.6168 25
      vertex 2.18097 -49.9524 37.5
      vertex 12.941 -48.2963 25
    endloop
  endfacet
  facet normal 0.537187 -0.675337 -0.505322
    outer loop
      vertex 49.9315 -2.6168 25
      vertex 48.1815 -13.3619 37.5
      vertex 2.18097 -49.9524 37.5
    endloop
  endfacet
  facet normal 0.723715 0.469986 0.505322
    outer loop
      vertex 17.9184 46.679 25
      vertex 48.1815 -13.3619 37.5
      vertex 49.9315 -2.6168 25
    endloop
  endfacet
  facet normal 0.808283 0.302205 -0.505322
    outer loop
      vertex 17.9184 46.679 25
      vertex 27.5968 41.6943 37.5
      vertex 48.1815 -13.3619 37.5
    endloop
  endfacet
  facet normal -0.223343 0.833527 0.505322
    outer loop
      vertex -38.8573 31.466 25
      vertex 27.5968 41.6943 37.5
      vertex 17.9184 46.679 25
    endloop
  endfacet
  facet normal -0.0376405 0.86211 -0.505322
    outer loop
      vertex -38.8573 31.466 25
      vertex -31.1257 39.1304 37.5
      vertex 27.5968 41.6943 37.5
    endloop
  endfacet
  facet normal -0.861748 0.0451623 0.505322
    outer loop
      vertex -41.9335 -27.232 25
      vertex -31.1257 39.1304 37.5
      vertex -38.8573 31.466 25
    endloop
  endfacet
  facet normal -0.831547 0.230608 -0.505322
    outer loop
      vertex -41.9335 -27.232 25
      vertex -46.8336 -17.5104 37.5
      vertex -31.1257 39.1304 37.5
    endloop
  endfacet
  facet normal -0.309247 -0.805615 0.505322
    outer loop
      vertex 12.941 -48.2963 25
      vertex -46.8336 -17.5104 37.5
      vertex -41.9335 -27.232 25
    endloop
  endfacet
  facet normal -0.476284 -0.719586 -0.505322
    outer loop
      vertex 12.941 -48.2963 25
      vertex 2.18097 -49.9524 37.5
      vertex -46.8336 -17.5104 37.5
    endloop
  endfacet
  facet normal 0.537187 -0.675337 0.505322
    outer loop
      vertex 48.1815 -13.3619 37.5
      vertex -8.68241 -49.2404 50
      vertex 2.18097 -49.9524 37.5
    endloop
  endfacet
  facet normal 0.378284 -0.775597 -0.505322
    outer loop
      vertex 48.1815 -13.3619 37.5
      vertex 44.1474 -23.4736 50
      vertex -8.68241 -49.2404 50
    endloop
  endfacet
  facet normal 0.808283 0.302205 0.505322
    outer loop
      vertex 27.5968 41.6943 37.5
      vertex 44.1474 -23.4736 50
      vertex 48.1815 -13.3619 37.5
    endloop
  endfacet
  facet normal 0.854533 0.120097 -0.505322
    outer loop
      vertex 27.5968 41.6943 37.5
      vertex 35.967 34.7329 50
      vertex 44.1474 -23.4736 50
    endloop
  endfacet
  facet normal -0.0376405 0.86211 0.505322
    outer loop
      vertex -31.1257 39.1304 37.5
      vertex 35.967 34.7329 50
      vertex 27.5968 41.6943 37.5
    endloop
  endfacet
  facet normal 0.149846 0.849821 -0.505322
    outer loop
      vertex -31.1257 39.1304 37.5
      vertex -21.9186 44.9397 50
      vertex 35.967 34.7329 50
    endloop
  endfacet
  facet normal -0.831547 0.230608 0.505322
    outer loop
      vertex -46.8336 -17.5104 37.5
      vertex -21.9186 44.9397 50
      vertex -31.1257 39.1304 37.5
    endloop
  endfacet
  facet normal -0.761923 0.405122 -0.505322
    outer loop
      vertex -46.8336 -17.5104 37.5
      vertex -49.5134 -6.95866 50
      vertex -21.9186 44.9397 50
    endloop
  endfacet
  facet normal -0.476284 -0.719586 0.505322
    outer loop
      vertex 2.18097 -49.9524 37.5
      vertex -49.5134 -6.95866 50
      vertex -46.8336 -17.5104 37.5
    endloop
  endfacet
  facet normal -0.620741 -0.599442 -0.505322
    outer loop
      vertex 2.18097 -49.9524 37.5
      vertex -8.68241 -49.2404 50
      vertex -49.5134 -6.95866 50
    endloop
  endfacet
endsolid OpenSCAD_Model
